HIERARCHY
ROOT Hips
{
	OFFSET 0.000000 0.000000 0.000000 
	CHANNELS 6 Xposition Yposition Zposition Zrotation Yrotation Xrotation
	JOINT LeftUpLeg
	{
		OFFSET 1.363060 -1.794630 0.839290 
		CHANNELS 3 Zrotation Yrotation Xrotation
		JOINT LeftLeg
		{
			OFFSET 2.448110 -6.726130 0.000000 
			CHANNELS 3 Zrotation Yrotation Xrotation
			JOINT LeftFoot
			{
				OFFSET 2.562200 -7.039590 0.000000 
				CHANNELS 3 Zrotation Yrotation Xrotation
				JOINT LeftToeBase
				{
					OFFSET 0.157640 -0.433110 2.322550 
					CHANNELS 3 Zrotation Yrotation Xrotation
					End Site
					{
						OFFSET 0.000000 0.000000 0.000000 
					}
				}
			}
		}
	}
	JOINT RightUpLeg
	{
		OFFSET -1.305520 -1.794630 0.839290 
		CHANNELS 3 Zrotation Yrotation Xrotation
		JOINT RightLeg
		{
			OFFSET -2.542530 -6.985550 0.000000 
			CHANNELS 3 Zrotation Yrotation Xrotation
			JOINT RightFoot
			{
				OFFSET -2.568260 -7.056230 0.000000 
				CHANNELS 3 Zrotation Yrotation Xrotation
				JOINT RightToeBase
				{
					OFFSET -0.164730 -0.452590 2.363150 
					CHANNELS 3 Zrotation Yrotation Xrotation
					End Site
					{
						OFFSET 0.000000 0.000000 0.000000 
					}
				}
			}
		}
	}
	JOINT Spine
	{
		OFFSET 0.028270 2.035590 -0.193380 
		CHANNELS 3 Zrotation Yrotation Xrotation
		JOINT Spine1
		{
			OFFSET 0.056720 2.048850 -0.042750 
			CHANNELS 3 Zrotation Yrotation Xrotation
			JOINT Neck1
			{
				OFFSET -0.054170 1.746240 0.172020 
				CHANNELS 3 Zrotation Yrotation Xrotation
				JOINT Head
				{
					OFFSET 0.104070 1.761360 -0.123970 
					CHANNELS 3 Zrotation Yrotation Xrotation
					End Site
					{
						OFFSET 0.000000 0.000000 0.000000 
					}
				}
			}
			JOINT LeftArm
			{
				OFFSET 3.362410 1.200890 -0.311210 
				CHANNELS 3 Zrotation Yrotation Xrotation
				JOINT LeftForeArm
				{
					OFFSET 4.983000 -0.000000 -0.000000 
					CHANNELS 3 Zrotation Yrotation Xrotation
					JOINT LeftHand
					{
						OFFSET 3.483560 -0.000000 -0.000000 
						CHANNELS 3 Zrotation Yrotation Xrotation
						JOINT LeftHandIndex1
						{
							OFFSET 0.715260 -0.000000 -0.000000 
							CHANNELS 3 Zrotation Yrotation Xrotation
							End Site
							{
								OFFSET 0.000000 0.000000 0.000000 
							}
						}
					}
				}
			}
			JOINT RightArm
			{
				OFFSET -3.136600 1.374050 -0.404650 
				CHANNELS 3 Zrotation Yrotation Xrotation
				JOINT RightForeArm
				{
					OFFSET -5.241900 -0.000000 -0.000000 
					CHANNELS 3 Zrotation Yrotation Xrotation
					JOINT RightHand
					{
						OFFSET -3.444170 -0.000000 -0.000000 
						CHANNELS 3 Zrotation Yrotation Xrotation
						JOINT RightHandIndex1
						{
							OFFSET -0.622530 -0.000000 -0.000000 
							CHANNELS 3 Zrotation Yrotation Xrotation
							End Site
							{
								OFFSET 0.000000 0.000000 0.000000 
							}
						}
					}
				}
			}
		}
	}
}
MOTION
Frames: 10
Frame Time: 0.041667
37.423188 15.749473 -14.554773 9.801237 56.967007 3.759751 -2.475236 -11.658328 -18.615004 1.061332 10.708868 28.515349 0.317710 -1.715152 0.829450 3.468200 -11.416900 -33.699300 36.832022 -3.848401 24.448147 -6.169513 -17.446678 48.577322 -0.352889 6.798623 -7.788436 -1.509000 -7.758300 21.982300 -0.248667 7.675509 -0.569923 -2.495798 3.662361 3.213154 12.642217 -9.388598 8.981181 2.579300 -2.758600 10.942600 -74.764342 37.454580 48.368842 27.043334 -39.257058 -10.400964 -0.757422 0.159317 -17.028415 -7.125000 0.000000 0.000000 68.049140 3.659782 48.442760 -127.465672 50.604101 -90.082739 1.143307 -0.530710 -24.565041 7.125000 0.000000 0.000000 
37.605494 15.763779 -14.481708 10.921702 56.431491 4.174553 -3.545318 -10.162978 -17.745369 1.109797 10.726096 28.761808 0.362441 -2.356233 0.991076 3.278700 -11.133100 -32.730200 35.282821 -3.893720 23.110474 -7.122280 -18.213198 52.033416 -0.288886 5.979612 -5.444706 -1.076600 -6.595500 18.522500 -0.319147 7.633608 -0.464824 -2.587629 3.659285 3.106267 12.556337 -9.150379 8.776981 2.542700 -2.689100 10.844100 -75.089380 34.980105 47.938691 26.279841 -38.503383 -9.896508 -0.774182 0.187589 -16.367250 -7.125000 0.000000 0.000000 69.375842 2.425414 48.295630 -125.437115 51.268630 -88.171834 1.199277 -0.579198 -24.989312 7.125000 0.000000 0.000000 
37.778297 15.793414 -14.397197 13.853544 55.449087 6.284148 -5.651132 -8.718302 -16.802420 1.026549 10.686361 28.608659 0.365011 -2.544335 0.684292 3.117800 -10.883400 -31.887600 32.531822 -3.464658 21.827958 -8.128782 -18.826553 55.379935 -0.260990 5.276792 -3.541469 -1.205900 -6.966800 19.617100 -0.492259 7.692367 -0.372007 -2.308363 3.678090 2.977787 12.475681 -8.822512 8.607491 2.504800 -2.576800 10.762400 -75.508812 32.455741 47.274081 25.627755 -37.851738 -9.476367 -0.772948 0.214766 -15.368013 -7.125000 0.000000 0.000000 70.736847 1.628603 47.842009 -122.415033 52.215926 -85.279288 1.281733 -0.642177 -24.289931 7.125000 0.000000 0.000000 
37.962545 15.824173 -14.313401 16.142177 54.484077 7.935122 -7.542164 -7.722135 -15.739112 0.914014 10.608341 28.289312 0.361023 -2.581598 0.022591 3.211600 -11.029900 -32.380800 29.896673 -3.201661 20.360549 -9.101415 -19.350225 58.513544 -0.259432 5.049360 -2.437716 -1.282500 -7.176400 20.239100 -0.632115 7.665274 -0.295700 -2.118025 3.658520 2.978407 12.278321 -8.435534 8.546732 2.416200 -2.441000 10.704500 -76.046822 29.953425 46.521021 24.947947 -37.172272 -9.050212 -0.765456 0.232101 -14.008065 -7.125000 0.000000 0.000000 72.144548 0.816349 47.732343 -118.822028 53.245680 -81.706908 1.391956 -0.748369 -24.395250 7.125000 0.000000 0.000000 
38.143012 15.863414 -14.230730 17.686630 53.489363 9.017727 -9.056389 -7.166862 -14.589212 0.810449 10.538444 27.984168 0.332785 -2.276357 -0.730757 3.115500 -10.879700 -31.875200 27.664614 -3.043829 18.647433 -10.111003 -19.847129 61.697481 -0.277509 5.756064 -2.692105 -0.958600 -6.234400 17.466200 -0.719610 7.566086 -0.266378 -1.940546 3.602519 2.891190 12.085133 -8.062639 8.602545 2.348000 -2.300000 10.735200 -76.678467 27.490517 45.931085 24.184555 -36.386710 -8.576193 -0.764775 0.269393 -12.597368 -7.125000 0.000000 0.000000 73.579674 0.067128 47.511837 -114.511753 54.376312 -77.299649 1.526907 -0.865982 -24.193627 7.125000 0.000000 0.000000 
38.311829 15.910319 -14.147547 18.463821 52.542749 9.516552 -10.099536 -6.893951 -13.356136 0.709572 10.441706 27.632162 0.279997 -1.623009 -1.646775 3.202200 -11.015300 -32.331600 26.126574 -2.815629 16.717060 -10.881999 -20.200974 64.079510 -0.302608 6.036862 -3.606480 -0.707700 -5.376500 14.985700 -0.798870 7.360540 -0.227862 -2.008681 3.505856 2.941621 12.004536 -7.655965 8.708626 2.326400 -2.106100 10.838200 -77.193321 24.869942 45.485688 23.443809 -35.599487 -8.124161 -0.774644 0.295620 -11.530031 -7.125000 0.000000 0.000000 75.313265 -0.175759 47.006071 -109.257852 55.659547 -71.833226 1.694434 -0.980477 -23.577110 7.125000 0.000000 0.000000 
38.475946 15.961005 -14.063854 18.528104 51.840075 9.462731 -10.644228 -6.573142 -12.087525 0.601179 10.257684 27.094961 0.242734 -1.140555 -2.374368 3.680500 -11.722700 -34.757800 25.029708 -2.757523 14.255039 -11.656406 -20.560764 66.463041 -0.337863 5.917150 -4.797854 -0.802800 -5.718600 15.970200 -0.803994 7.032323 -0.205399 -2.077336 3.341247 2.997045 11.920529 -7.217529 8.883184 2.302900 -1.888600 10.981100 -77.630949 22.230540 45.660017 22.774146 -34.866335 -7.718428 -0.787053 0.311683 -11.094183 -7.125000 0.000000 0.000000 77.063856 -0.143584 46.163533 -102.969519 57.130374 -65.353647 1.870552 -1.071541 -22.663205 7.125000 0.000000 0.000000 
38.653654 16.029473 -13.978628 18.015151 50.946086 9.241054 -10.736321 -5.811341 -10.973585 0.471536 9.950070 26.269002 0.210247 -0.713892 -2.961161 4.289900 -12.536600 -37.657500 24.475347 -2.497322 11.359225 -12.514862 -20.946981 69.080654 -0.391626 5.577836 -6.403461 -0.650200 -5.158200 14.360200 -0.776870 6.794398 -0.178519 -2.155080 3.209137 3.333724 11.819239 -6.780855 9.135527 2.294900 -1.674100 11.169600 -78.494157 19.555658 44.939759 22.138375 -34.178668 -7.349999 -0.779537 0.338519 -9.735473 -7.125000 0.000000 0.000000 78.721056 0.017171 44.604254 -95.358525 58.833684 -57.824230 1.989677 -1.196546 -21.191671 7.125000 0.000000 0.000000 
38.811026 16.101312 -13.897796 18.073273 50.207208 9.539214 -11.225685 -5.302799 -10.043597 0.329965 9.688762 25.487740 0.173993 -0.253116 -3.547902 4.650100 -12.978600 -39.288500 23.526913 -2.410274 8.693266 -12.966450 -21.120198 70.412549 -0.370034 4.107963 -6.791987 -0.885400 -5.998300 16.779500 -0.794770 6.441135 -0.228372 -2.307300 3.037296 3.376954 11.751436 -6.368002 9.343565 2.307700 -1.481900 11.270400 -78.961415 17.000222 45.160069 21.599614 -33.562998 -7.034615 -0.768348 0.355444 -9.004293 -7.125000 0.000000 0.000000 80.507096 -0.017437 42.858180 -87.341886 60.272201 -50.581551 1.958776 -1.371875 -20.558681 7.125000 0.000000 0.000000 
38.962880 16.172640 -13.817066 18.485205 49.462215 10.096650 -12.099229 -5.045069 -8.951659 0.147094 9.404506 24.556829 0.127747 0.300889 -4.095529 4.628500 -12.952900 -39.192200 22.294470 -2.180266 5.371963 -13.755202 -21.365258 72.715428 -0.376821 3.444434 -7.498896 -1.031500 -6.460100 18.125400 -0.842964 6.034038 -0.264409 -2.466541 2.839940 3.455306 11.604140 -5.965619 9.503295 2.225800 -1.291000 11.336000 -79.354143 14.446538 45.628847 21.179996 -33.069954 -6.789360 -0.759372 0.371779 -8.518439 -7.125000 0.000000 0.000000 82.177021 0.327451 40.994765 -77.984350 61.104178 -43.053000 1.794272 -1.559388 -19.422569 7.125000 0.000000 0.000000 
